# xmcd
#
# Track frame offsets: 
#        150
#        18755
#        37420
#        60145
#        74507
#        96430
#        116232
#        135385
#        163562
#
# Disc length: 2554 seconds
#
# Revision: 3
# Processed by: cddbd v1.5.2PL0 Copyright (c) Steve Scherf et al.
# Submitted via: ExactAudioCopy v0.99pb4
#
DISCID=7809f809
DTITLE=Prince - Batman
DYEAR=1989
DGENRE=Soundtrack
TTITLE0=The Future
TTITLE1=Electric Chair
TTITLE2=The Arms Of Orion
TTITLE3=Partyman
TTITLE4=Vicki Waiting
TTITLE5=Trust
TTITLE6=Lemon Crush
TTITLE7=Scandalous
TTITLE8=Batdance
EXTD=YEAR: 1989
EXTT0=
EXTT1=
EXTT2=
EXTT3=
EXTT4=
EXTT5=
EXTT6=
EXTT7=
EXTT8=
PLAYORDER=
